<?xml version="1.0" encoding="UTF-8"?>
<svg xmlns="http://www.w3.org/2000/svg" width="1600" height="600" viewBox="0 0 1600 600">
  <defs>
    <linearGradient id="bg" x1="0" y1="0" x2="1" y2="1">
      <stop offset="0%" stop-color="#071b32"/>
      <stop offset="55%" stop-color="#0e6fbe"/>
      <stop offset="100%" stop-color="#00adb5"/>
    </linearGradient>
    <filter id="soft" x="-20%" y="-20%" width="140%" height="140%">
      <feGaussianBlur stdDeviation="18" />
    </filter>
  </defs>
  <rect width="1600" height="600" fill="url(#bg)"/>
  <g filter="url(#soft)"><circle cx="720" cy="260" r="23" fill="rgba(255,255,255,0.15)" /><circle cx="1521" cy="408" r="10" fill="rgba(255,255,255,0.08)" /><circle cx="147" cy="381" r="10" fill="rgba(255,255,255,0.20)" /><circle cx="219" cy="70" r="33" fill="rgba(255,255,255,0.19)" /><circle cx="726" cy="3" r="12" fill="rgba(255,255,255,0.19)" /><circle cx="972" cy="315" r="36" fill="rgba(255,255,255,0.14)" /><circle cx="1451" cy="88" r="20" fill="rgba(255,255,255,0.09)" /><circle cx="1349" cy="205" r="8" fill="rgba(255,255,255,0.21)" /><circle cx="1173" cy="435" r="32" fill="rgba(255,255,255,0.18)" /><circle cx="1168" cy="533" r="8" fill="rgba(255,255,255,0.14)" /><circle cx="1342" cy="202" r="38" fill="rgba(255,255,255,0.08)" /><circle cx="722" cy="418" r="39" fill="rgba(255,255,255,0.11)" /><circle cx="380" cy="113" r="29" fill="rgba(255,255,255,0.17)" /><circle cx="810" cy="234" r="37" fill="rgba(255,255,255,0.19)" /><circle cx="1333" cy="285" r="56" fill="rgba(255,255,255,0.19)" /><circle cx="1202" cy="213" r="30" fill="rgba(255,255,255,0.14)" /><circle cx="1301" cy="440" r="35" fill="rgba(255,255,255,0.21)" /><circle cx="532" cy="548" r="32" fill="rgba(255,255,255,0.10)" /><circle cx="12" cy="33" r="48" fill="rgba(255,255,255,0.15)" /><circle cx="876" cy="489" r="17" fill="rgba(255,255,255,0.16)" /><circle cx="438" cy="326" r="31" fill="rgba(255,255,255,0.21)" /><circle cx="114" cy="465" r="33" fill="rgba(255,255,255,0.15)" /></g>

  <path d="M 0 420 L 0 453 L 40 453 L 80 453 L 120 450 L 160 446 L 200 440 L 240 434 L 280 428 L 320 422 L 360 417 L 400 413 L 440 410 L 480 410 L 520 410 L 560 413 L 600 417 L 640 423 L 680 429 L 720 435 L 760 441 L 800 446 L 840 450 L 880 453 L 920 453 L 960 452 L 1000 450 L 1040 446 L 1080 440 L 1120 434 L 1160 428 L 1200 422 L 1240 417 L 1280 413 L 1320 410 L 1360 410 L 1400 411 L 1440 413 L 1480 417 L 1520 423 L 1560 429 L 1600 435 L 1600 600 L 0 600 Z" fill="rgba(255,255,255,0.10)"/>
  <path d="M 0 468 L 0 483 L 40 489 L 80 493 L 120 496 L 160 497 L 200 497 L 240 494 L 280 490 L 320 484 L 360 478 L 400 473 L 440 468 L 480 464 L 520 462 L 560 462 L 600 464 L 640 467 L 680 472 L 720 478 L 760 484 L 800 489 L 840 494 L 880 497 L 920 497 L 960 496 L 1000 494 L 1040 489 L 1080 484 L 1120 478 L 1160 472 L 1200 467 L 1240 463 L 1280 462 L 1320 462 L 1360 464 L 1400 468 L 1440 473 L 1480 479 L 1520 485 L 1560 490 L 1600 494 L 1600 600 L 0 600 Z" fill="rgba(0,0,0,0.10)"/>

  <g transform="translate(84,88)" opacity="0.95">
    <rect x="0" y="86" width="220" height="84" rx="38" fill="rgba(255,255,255,0.18)" />
    <rect x="26" y="106" width="168" height="44" rx="22" fill="rgba(255,255,255,0.24)" />
    <circle cx="26" cy="128" r="36" fill="rgba(255,255,255,0.20)" />
    <circle cx="220" cy="128" r="36" fill="rgba(255,255,255,0.20)" />
  </g>

  <g transform="translate(360,120)">
    <text x="0" y="0" fill="#ffffff" font-family="system-ui,Segoe UI,Arial" font-size="66" font-weight="800">Index</text>
    <text x="0" y="54" fill="rgba(255,255,255,0.92)" font-family="system-ui,Segoe UI,Arial" font-size="28" font-weight="600">Fast help for leaks, drains, water heaters, sump pumps, and repairs.</text>
    <text x="0" y="100" fill="rgba(255,255,255,0.85)" font-family="system-ui,Segoe UI,Arial" font-size="22">Lakefront Leak &amp; Drain • Keeping Cleveland Flowing</text>
  </g>
</svg>
