<?xml version="1.0" encoding="UTF-8"?>
<svg xmlns="http://www.w3.org/2000/svg" width="1600" height="600" viewBox="0 0 1600 600">
  <defs>
    <linearGradient id="bg" x1="0" y1="0" x2="1" y2="1">
      <stop offset="0%" stop-color="#071b32"/>
      <stop offset="55%" stop-color="#0e6fbe"/>
      <stop offset="100%" stop-color="#00adb5"/>
    </linearGradient>
    <filter id="soft" x="-20%" y="-20%" width="140%" height="140%">
      <feGaussianBlur stdDeviation="18" />
    </filter>
  </defs>
  <rect width="1600" height="600" fill="url(#bg)"/>
  <g filter="url(#soft)"><circle cx="1133" cy="540" r="60" fill="rgba(255,255,255,0.14)" /><circle cx="408" cy="251" r="37" fill="rgba(255,255,255,0.11)" /><circle cx="875" cy="552" r="59" fill="rgba(255,255,255,0.18)" /><circle cx="937" cy="357" r="17" fill="rgba(255,255,255,0.08)" /><circle cx="1219" cy="191" r="22" fill="rgba(255,255,255,0.11)" /><circle cx="920" cy="238" r="21" fill="rgba(255,255,255,0.08)" /><circle cx="1171" cy="323" r="18" fill="rgba(255,255,255,0.20)" /><circle cx="255" cy="71" r="11" fill="rgba(255,255,255,0.15)" /><circle cx="975" cy="557" r="35" fill="rgba(255,255,255,0.13)" /><circle cx="1353" cy="515" r="16" fill="rgba(255,255,255,0.11)" /><circle cx="199" cy="240" r="19" fill="rgba(255,255,255,0.08)" /><circle cx="532" cy="187" r="16" fill="rgba(255,255,255,0.11)" /><circle cx="486" cy="367" r="16" fill="rgba(255,255,255,0.10)" /><circle cx="192" cy="584" r="23" fill="rgba(255,255,255,0.20)" /><circle cx="489" cy="255" r="49" fill="rgba(255,255,255,0.09)" /><circle cx="1366" cy="11" r="43" fill="rgba(255,255,255,0.08)" /><circle cx="671" cy="72" r="38" fill="rgba(255,255,255,0.22)" /><circle cx="904" cy="586" r="23" fill="rgba(255,255,255,0.08)" /><circle cx="964" cy="290" r="50" fill="rgba(255,255,255,0.08)" /><circle cx="900" cy="104" r="26" fill="rgba(255,255,255,0.10)" /><circle cx="998" cy="338" r="15" fill="rgba(255,255,255,0.09)" /><circle cx="99" cy="21" r="20" fill="rgba(255,255,255,0.08)" /></g>

  <path d="M 0 420 L 0 453 L 40 453 L 80 453 L 120 450 L 160 446 L 200 440 L 240 434 L 280 428 L 320 422 L 360 417 L 400 413 L 440 410 L 480 410 L 520 410 L 560 413 L 600 417 L 640 423 L 680 429 L 720 435 L 760 441 L 800 446 L 840 450 L 880 453 L 920 453 L 960 452 L 1000 450 L 1040 446 L 1080 440 L 1120 434 L 1160 428 L 1200 422 L 1240 417 L 1280 413 L 1320 410 L 1360 410 L 1400 411 L 1440 413 L 1480 417 L 1520 423 L 1560 429 L 1600 435 L 1600 600 L 0 600 Z" fill="rgba(255,255,255,0.10)"/>
  <path d="M 0 468 L 0 483 L 40 489 L 80 493 L 120 496 L 160 497 L 200 497 L 240 494 L 280 490 L 320 484 L 360 478 L 400 473 L 440 468 L 480 464 L 520 462 L 560 462 L 600 464 L 640 467 L 680 472 L 720 478 L 760 484 L 800 489 L 840 494 L 880 497 L 920 497 L 960 496 L 1000 494 L 1040 489 L 1080 484 L 1120 478 L 1160 472 L 1200 467 L 1240 463 L 1280 462 L 1320 462 L 1360 464 L 1400 468 L 1440 473 L 1480 479 L 1520 485 L 1560 490 L 1600 494 L 1600 600 L 0 600 Z" fill="rgba(0,0,0,0.10)"/>

  <g transform="translate(84,88)" opacity="0.95">
    <rect x="0" y="86" width="220" height="84" rx="38" fill="rgba(255,255,255,0.18)" />
    <rect x="26" y="106" width="168" height="44" rx="22" fill="rgba(255,255,255,0.24)" />
    <circle cx="26" cy="128" r="36" fill="rgba(255,255,255,0.20)" />
    <circle cx="220" cy="128" r="36" fill="rgba(255,255,255,0.20)" />
  </g>

  <g transform="translate(360,120)">
    <text x="0" y="0" fill="#ffffff" font-family="system-ui,Segoe UI,Arial" font-size="66" font-weight="800">Index</text>
    <text x="0" y="54" fill="rgba(255,255,255,0.92)" font-family="system-ui,Segoe UI,Arial" font-size="28" font-weight="600">Fast help for leaks, drains, water heaters, sump pumps, and repairs.</text>
    <text x="0" y="100" fill="rgba(255,255,255,0.85)" font-family="system-ui,Segoe UI,Arial" font-size="22">Lakefront Leak &amp; Drain • Keeping Cleveland Flowing</text>
  </g>
</svg>
